# xmcd
#
# Track frame offsets: 
#        150
#        12237
#        32800
#        49105
#        67558
#        91070
#        108902
#        131599
#        145103
#        167425
#        182605
#        195925
#        211678
#
# Disc length: 3001 seconds
#
# Revision: 0
# Processed by: cddbd v1.5.2PL0 Copyright (c) Steve Scherf et al.
# Submitted via: ExactAudioCopy v1.0b4
#
DISCID=970bb70d
DTITLE=Doug Deming and The Jewel Tones - Complicated Mess
DYEAR=2018
DGENRE=Blues
TTITLE0=Complicated Mess
TTITLE1=Sweet Poison
TTITLE2=You Rascal You
TTITLE3=Hold On
TTITLE4=Need My Baby
TTITLE5=Blues Stop Knockin'
TTITLE6=Deep Blue Sea
TTITLE7=Someday Pretty Baby
TTITLE8=Captain's Quarters
TTITLE9=Just A Moment Of Your Time
TTITLE10=I'm Walkin'
TTITLE11=Cookin' At The Kitchen
TTITLE12=Rat Killin'
EXTD=
EXTT0=
EXTT1=
EXTT2=
EXTT3=
EXTT4=
EXTT5=
EXTT6=
EXTT7=
EXTT8=
EXTT9=
EXTT10=
EXTT11=
EXTT12=
PLAYORDER=
